Coordinates
version=1
nRows=12
nColumns=24
inDegrees=yes

Units are S.I. units (second, meters, Newtons, ...)
Angles are in degrees.

endheader
time	pelvis_tilt	pelvis_list	pelvis_rotation	pelvis_tx	pelvis_ty	pelvis_tz	hip_flexion_r	hip_adduction_r	hip_rotation_r	knee_angle_r	ankle_angle_r	subtalar_angle_r	mtp_angle_r	hip_flexion_l	hip_adduction_l	hip_rotation_l	knee_angle_l	ankle_angle_l	subtalar_angle_l	mtp_angle_l	lumbar_extension	lumbar_bending	lumbar_rotation
      4.69500000	     39.14050045	      3.87296019	      6.03479975	     -0.12637519	      0.67706680	     -0.27601374	    -20.20174978	     -6.55556282	    -18.65977414	    -64.31815495	      7.91852004	      0.21669352	      0.00000000	    -30.24138757	      3.67997883	      4.43920926	    -17.06083748	     15.34698764	      9.12447454	      0.00000000	    -63.32338440	      2.24392431	     -4.27747601
      4.70000000	     39.11604754	      3.99114367	      6.60040817	     -0.12164346	      0.67768138	     -0.27623231	    -19.58554928	     -6.43756417	    -19.25283196	    -63.41448815	      8.64937426	      0.60507344	      0.00000000	    -30.84097766	      3.39585652	      4.88014652	    -16.73902377	     15.58271476	      9.29621216	      0.00000000	    -63.39033707	      2.60554481	     -4.68879989
      4.70500000	     39.01745336	      3.94511154	      6.87388422	     -0.11688111	      0.67815495	     -0.27627984	    -18.77276729	     -6.25947528	    -19.44756045	    -62.50117720	      9.30255695	      1.06384107	      0.00000000	    -31.36394356	      3.12357786	      5.00489997	    -16.39004126	     15.84111666	      9.44273184	      0.00000000	    -63.38382759	      2.84121185	     -4.74005088
      4.71000000	     38.92994570	      3.96352509	      7.20950794	     -0.11209163	      0.67856860	     -0.27629519	    -18.05685294	     -6.11129270	    -19.73126019	    -61.45846580	      9.92998921	      1.54073702	      0.00000000	    -31.88305092	      2.86139391	      5.18116011	    -16.08207339	     16.13356374	      9.67152965	      0.00000000	    -63.38445813	      3.05398706	     -4.88349060
      4.71500000	     38.86028193	      4.01436846	      7.58213777	     -0.10728625	      0.67892759	     -0.27630984	    -17.42939214	     -5.97499015	    -20.07131329	    -60.29146873	     10.49819100	      1.97223440	      0.00000000	    -32.40375700	      2.59971730	      5.37680733	    -15.81338427	     16.44456056	      9.88825485	      0.00000000	    -63.39844482	      3.26825657	     -5.07259170
      4.72000000	     38.89504520	      4.16542682	      8.09021052	     -0.10251163	      0.67928232	     -0.27642703	    -17.04321607	     -5.88687709	    -20.62588535	    -58.96603988	     11.02230577	      2.26473629	      0.00000000	    -33.03146512	      2.33245925	      5.74695038	    -15.56080514	     16.76318016	     10.11726164	      0.00000000	    -63.52288003	      3.55797952	     -5.44110795
      4.72500000	     38.79512742	      4.18253925	      8.32996915	     -0.09768599	      0.67944841	     -0.27641247	    -16.40133169	     -5.76420380	    -20.79787196	    -57.65416943	     11.46883322	      2.61599036	      0.00000000	    -33.50252884	      2.12454666	      5.84903165	    -15.32413441	     17.08148602	     10.26404878	      0.00000000	    -63.51270546	      3.70572104	     -5.52184562
      4.73000000	     38.80652645	      4.32107668	      8.74207211	     -0.09288562	      0.67963282	     -0.27641023	    -16.03745867	     -5.67119489	    -21.21494996	    -56.15120952	     11.90125287	      2.80618071	      0.00000000	    -34.06834033	      1.88565685	      6.09727764	    -15.14776782	     17.42167717	     10.52909279	      0.00000000	    -63.61786834	      3.90556481	     -5.81890937
      4.73500000	     38.69449283	      4.37361866	      8.94079142	     -0.08802683	      0.67963187	     -0.27637727	    -15.47040329	     -5.59546907	    -21.36350593	    -54.65206242	     12.25141280	      3.02669259	      0.00000000	    -34.49661530	      1.73419437	      6.16083073	    -14.98493554	     17.77171918	     10.65695035	      0.00000000	    -63.58947465	      4.00626587	     -5.90950604
      4.74000000	     38.63803997	      4.49428783	      9.24306894	     -0.08315819	      0.67960662	     -0.27635420	    -15.07433836	     -5.53557093	    -21.66444021	    -53.00903923	     12.55492514	      3.11483749	      0.00000000	    -34.96884199	      1.55533749	      6.31351225	    -14.86350547	     18.17163195	     10.92670384	      0.00000000	    -63.61743115	      4.13639813	     -6.12608572
      4.74500000	     38.59684759	      4.63709275	      9.53101504	     -0.07829449	      0.67951260	     -0.27632290	    -14.74251198	     -5.49299283	    -21.95539880	    -51.27159664	     12.81854352	      3.11833368	      0.00000000	    -35.44586450	      1.40354768	      6.49201114	    -14.76883063	     18.55760433	     11.12140043	      0.00000000	    -63.67192114	      4.24239037	     -6.36641857
      4.75000000	     38.55643509	      4.81094460	      9.78637478	     -0.07342593	      0.67933293	     -0.27628009	    -14.45332245	     -5.49077935	    -22.23042799	    -49.45746721	     13.04897695	      3.04002156	      0.00000000	    -35.90992362	      1.29862225	      6.66104160	    -14.71712911	     18.95085907	     11.30370971	      0.00000000	    -63.72637653	      4.31033606	     -6.61282573
